<svg width="180" height="202" viewBox="0 0 180 202" fill="none" xmlns="http://www.w3.org/2000/svg">
<ellipse cx="96.4671" cy="84.3413" rx="71.1377" ry="7.81437" fill="#E6E7E8"/>
<path d="M51.1975 19.4012V34.7605L69.2514 42.0359V19.4012H51.1975Z" fill="#8FC549"/>
<path d="M75.449 11.0479V46.0779L93.5029 53.3533V11.0479H75.449Z" fill="#E75766"/>
<path d="M100.24 0V56.0479L118.293 63.3233V0H100.24Z" fill="#8FC549"/>
<path d="M12.3953 68.1736V87.3054L49.3114 57.3952L119.102 87.3054L155.21 60.3593L158.443 68.1736L167.335 40.9581L139.85 45.5389L147.126 48.7724L119.102 69.2515L49.3114 38.8024L12.3953 68.1736Z" fill="#126BA5"/>
<path d="M42.0434 163.4C40.7434 163.4 39.86 163.067 39.3934 162.4C38.9267 161.7 38.6934 160.833 38.6934 159.8C38.6934 158.867 38.8267 157.817 39.0934 156.65C39.3934 155.217 39.9267 153.517 40.6934 151.55C41.4934 149.583 42.3767 147.533 43.3434 145.4C44.3434 143.233 45.3267 141.167 46.2934 139.2C47.2934 137.233 48.16 135.55 48.8934 134.15C48.46 134.55 48.01 134.967 47.5434 135.4C47.11 135.833 46.66 136.317 46.1934 136.85C44.26 139.017 42.4934 141.083 40.8934 143.05C39.3267 144.983 37.81 146.9 36.3434 148.8C34.91 150.667 33.4267 152.583 31.8934 154.55C31.06 155.65 30.3934 156.483 29.8934 157.05C29.4267 157.583 28.9934 157.95 28.5934 158.15C28.2267 158.317 27.76 158.4 27.1934 158.4C26.36 158.4 25.41 158.15 24.3434 157.65C24.81 157.083 25.1267 155.867 25.2934 154C25.4934 152.133 25.5934 150 25.5934 147.6C25.5934 145.167 25.51 142.65 25.3434 140.05C25.1767 137.45 24.9267 135.15 24.5934 133.15C24.3934 133.483 24.0267 134.217 23.4934 135.35C22.9934 136.483 22.3767 137.883 21.6434 139.55C20.9434 141.183 20.1934 142.967 19.3934 144.9C18.5934 146.8 17.81 148.717 17.0434 150.65C16.31 152.55 15.6434 154.35 15.0434 156.05C14.4767 157.75 14.0434 159.217 13.7434 160.45C13.4434 161.683 13.3434 162.533 13.4434 163H8.84336C9.57669 161.133 10.41 159.067 11.3434 156.8C12.31 154.5 13.31 152.15 14.3434 149.75C15.3767 147.35 16.3934 145.017 17.3934 142.75C18.4267 140.483 19.36 138.417 20.1934 136.55C21.06 134.65 21.7767 133.083 22.3434 131.85C22.91 130.617 23.2767 129.85 23.4434 129.55C21.9767 129.517 20.4767 129.667 18.9434 130C17.41 130.3 15.9767 130.733 14.6434 131.3C13.31 131.867 12.1767 132.517 11.2434 133.25C10.3434 133.983 9.76003 134.75 9.49336 135.55C9.46003 135.65 9.39336 135.7 9.29336 135.7C9.02669 135.7 8.89336 135.483 8.89336 135.05C8.89336 134.983 8.89336 134.917 8.89336 134.85C8.92669 134.75 8.96003 134.65 8.99336 134.55C9.29336 133.683 9.66003 132.917 10.0934 132.25C10.56 131.583 11.01 131.017 11.4434 130.55C12.5434 129.417 13.7767 128.733 15.1434 128.5C16.51 128.233 17.96 128.1 19.4934 128.1H24.3434C25.0767 128.1 25.7934 128.1 26.4934 128.1C27.1934 128.1 27.81 128.283 28.3434 128.65C28.8767 128.983 29.2267 129.65 29.3934 130.65C29.5267 131.35 29.6434 132.417 29.7434 133.85C29.8767 135.25 29.9767 136.817 30.0434 138.55C30.1434 140.283 30.2267 142 30.2934 143.7C30.36 145.4 30.41 146.867 30.4434 148.1C30.4434 148.167 30.4434 148.367 30.4434 148.7C30.4767 149 30.4934 149.383 30.4934 149.85C30.4934 150.283 30.4767 150.783 30.4434 151.35C30.4434 151.883 30.41 152.4 30.3434 152.9C31.0434 152.033 31.91 150.967 32.9434 149.7C34.01 148.4 35.16 147 36.3934 145.5C37.6267 143.967 38.8767 142.433 40.1434 140.9C41.41 139.367 42.6267 137.9 43.7934 136.5C44.96 135.1 45.9767 133.883 46.8434 132.85C47.7434 131.783 48.41 130.983 48.8434 130.45C49.61 129.583 50.5767 128.983 51.7434 128.65C52.91 128.283 54.0767 128.1 55.2434 128.1H58.3434C57.6434 128.633 56.8767 129.533 56.0434 130.8C55.21 132.067 54.3934 133.433 53.5934 134.9C52.8267 136.367 52.1434 137.7 51.5434 138.9C50.6767 140.7 49.7934 142.65 48.8934 144.75C47.9934 146.85 47.1934 148.933 46.4934 151C45.7934 153.067 45.2767 154.983 44.9434 156.75C44.8434 157.283 44.7934 157.85 44.7934 158.45C44.7934 159.183 44.91 159.833 45.1434 160.4C45.41 160.933 45.8767 161.2 46.5434 161.2C47.0767 161.2 47.7267 160.983 48.4934 160.55H48.5434C48.61 160.55 48.66 160.617 48.6934 160.75C48.7267 160.85 48.71 160.933 48.6434 161C48.01 161.667 47.0434 162.233 45.7434 162.7C44.4434 163.167 43.21 163.4 42.0434 163.4ZM52.2855 173.05C51.4522 173.05 50.5689 172.917 49.6355 172.65C48.7355 172.417 47.9855 172 47.3855 171.4C46.7522 170.8 46.4355 170 46.4355 169C46.4355 168.3 46.6522 167.65 47.0855 167.05C47.5189 166.45 48.1189 166.15 48.8855 166.15C49.3522 166.15 49.7855 166.267 50.1855 166.5C50.5855 166.767 50.8522 167.083 50.9855 167.45C50.9189 167.483 50.8189 167.583 50.6855 167.75C50.5522 167.917 50.4689 168.033 50.4355 168.1C50.2022 168.567 50.0855 169.05 50.0855 169.55C50.0855 170.183 50.3022 170.683 50.7355 171.05C51.2022 171.45 51.7855 171.65 52.4855 171.65C53.3855 171.65 54.3189 171.317 55.2855 170.65C56.3522 169.883 57.1855 168.883 57.7855 167.65C58.4189 166.45 58.9189 165.367 59.2855 164.4L62.1355 156.8C61.5355 157.533 60.9022 158.283 60.2355 159.05C59.6022 159.783 59.2022 160.233 59.0355 160.4C57.7689 161.667 56.6355 162.467 55.6355 162.8C54.6355 163.133 53.7522 163.3 52.9855 163.3C52.1855 163.3 51.5022 162.95 50.9355 162.25C50.4022 161.55 50.1355 160.533 50.1355 159.2C50.1355 158.533 50.2355 157.683 50.4355 156.65C50.6355 155.617 50.9189 154.517 51.2855 153.35C51.6522 152.15 52.0689 150.983 52.5355 149.85C53.0355 148.683 53.5689 147.65 54.1355 146.75C55.0022 145.383 55.9689 144.5 57.0355 144.1C58.1022 143.7 59.4522 143.5 61.0855 143.5C61.2189 143.5 61.2855 143.567 61.2855 143.7C61.2855 143.833 61.1855 144 60.9855 144.2C60.5189 144.6 59.9522 145.3 59.2855 146.3C58.6189 147.3 57.9689 148.4 57.3355 149.6C56.7355 150.8 56.2355 151.95 55.8355 153.05C55.5689 153.817 55.3022 154.717 55.0355 155.75C54.8022 156.783 54.6855 157.683 54.6855 158.45C54.6855 158.983 54.7522 159.417 54.8855 159.75C55.0522 160.05 55.3022 160.2 55.6355 160.2C56.1689 160.2 56.9022 159.8 57.8355 159C59.2355 157.833 60.5022 156.4 61.6355 154.7C62.7689 153 63.7355 151.233 64.5355 149.4C65.0022 148.333 65.3855 147.433 65.6855 146.7C65.9855 145.933 66.3189 145.317 66.6855 144.85C67.0522 144.383 67.5689 144.05 68.2355 143.85C68.9022 143.617 69.8022 143.5 70.9355 143.5H72.9855C72.3522 143.9 71.7189 144.65 71.0855 145.75C70.4522 146.817 69.8522 148.083 69.2855 149.55C68.8522 150.617 68.4022 151.783 67.9355 153.05C67.5022 154.317 67.0522 155.6 66.5855 156.9C66.1855 158.1 65.7522 159.417 65.2855 160.85C64.8189 162.25 64.2855 163.617 63.6855 164.95C63.0855 166.317 62.3855 167.5 61.5855 168.5C60.4522 169.9 59.0689 171 57.4355 171.8C55.8022 172.633 54.0855 173.05 52.2855 173.05ZM72.0758 163C72.8091 161.133 73.6424 159.067 74.5758 156.8C75.5424 154.5 76.5424 152.15 77.5758 149.75C78.6091 147.35 79.6258 145.017 80.6258 142.75C81.6591 140.483 82.5924 138.417 83.4258 136.55C84.2924 134.65 85.0091 133.083 85.5758 131.85C86.1424 130.617 86.5091 129.85 86.6758 129.55C85.2091 129.517 83.7091 129.667 82.1758 130C80.6424 130.3 79.2091 130.733 77.8758 131.3C76.5424 131.867 75.4091 132.517 74.4758 133.25C73.5758 133.983 72.9924 134.75 72.7258 135.55C72.6924 135.65 72.6258 135.7 72.5258 135.7C72.2591 135.7 72.1258 135.483 72.1258 135.05C72.1258 134.983 72.1258 134.917 72.1258 134.85C72.1591 134.75 72.1924 134.65 72.2258 134.55C72.5258 133.683 72.8924 132.917 73.3258 132.25C73.7924 131.583 74.2424 131.017 74.6758 130.55C75.7758 129.417 77.0091 128.733 78.3758 128.5C79.7424 128.233 81.1924 128.1 82.7258 128.1H91.1758C91.1091 128.233 90.9758 128.5 90.7758 128.9C90.5758 129.3 90.4758 129.967 90.4758 130.9C90.4758 131.867 90.6591 133.183 91.0258 134.85C91.4258 136.517 92.1924 138.667 93.3258 141.3C93.7591 142.333 94.1591 143.3 94.5258 144.2C94.8924 145.067 95.2091 145.883 95.4758 146.65C95.9758 147.983 96.3424 149.05 96.5758 149.85C96.8091 150.617 96.9591 151.217 97.0258 151.65C97.1258 152.083 97.1758 152.467 97.1758 152.8C97.2091 153.1 97.2424 153.433 97.2758 153.8C97.6758 152.8 98.2258 151.483 98.9258 149.85C99.6258 148.217 100.392 146.417 101.226 144.45C102.092 142.483 102.976 140.483 103.876 138.45C104.776 136.417 105.626 134.5 106.426 132.7C107.226 130.9 107.892 129.367 108.426 128.1C108.526 127.933 108.876 127.85 109.476 127.85C110.076 127.85 110.759 127.9 111.526 128C112.292 128.1 112.809 128.15 113.076 128.15C112.142 128.783 111.142 130 110.076 131.8C109.042 133.6 107.909 135.767 106.676 138.3C105.642 140.433 104.609 142.683 103.576 145.05C102.576 147.383 101.659 149.667 100.826 151.9C100.026 154.1 99.3758 156.1 98.8758 157.9C98.4091 159.7 98.1758 161.1 98.1758 162.1C98.1758 162.267 98.1758 162.433 98.1758 162.6C98.2091 162.733 98.2425 162.867 98.2758 163H95.1258C95.0924 162 94.9758 161.067 94.7758 160.2C94.5758 159.333 94.2591 158.35 93.8258 157.25C93.3924 156.117 92.7924 154.717 92.0258 153.05C91.2924 151.35 90.3758 149.2 89.2758 146.6C88.3091 144.333 87.5924 142.35 87.1258 140.65C86.6924 138.95 86.4258 137.5 86.3258 136.3C85.7924 137.5 85.1591 138.933 84.4258 140.6C83.7258 142.233 82.9924 143.967 82.2258 145.8C81.4591 147.633 80.7258 149.467 80.0258 151.3C79.3258 153.133 78.6924 154.85 78.1258 156.45C77.5924 158.05 77.1924 159.433 76.9258 160.6C76.6591 161.733 76.5758 162.533 76.6758 163H72.0758ZM109.558 163.4C108.025 163.4 106.692 162.917 105.558 161.95C104.458 160.983 103.908 159.433 103.908 157.3C103.908 155.733 104.192 154.1 104.758 152.4C105.325 150.7 106.125 149.117 107.158 147.65C108.225 146.183 109.508 144.983 111.008 144.05C112.508 143.117 114.192 142.65 116.058 142.65C117.592 142.65 118.775 142.95 119.608 143.55C120.475 144.117 121.092 144.883 121.458 145.85C121.825 146.817 122.008 147.85 122.008 148.95C122.008 149.783 121.908 150.633 121.708 151.5C121.542 152.333 121.292 153.167 120.958 154C121.525 154.667 122.242 155 123.108 155C124.042 155 124.908 154.65 125.708 153.95C126.175 153.55 126.592 153.05 126.958 152.45C127.358 151.817 127.708 151.233 128.008 150.7C128.108 150.5 128.225 150.4 128.358 150.4C128.525 150.4 128.608 150.633 128.608 151.1C128.608 151.4 128.558 151.75 128.458 152.15C128.392 152.55 128.225 152.95 127.958 153.35C127.458 154.217 126.942 154.883 126.408 155.35C125.875 155.783 125.275 156.133 124.608 156.4C124.108 156.6 123.575 156.7 123.008 156.7C121.975 156.7 121.042 156.383 120.208 155.75C119.942 156.317 119.608 156.9 119.208 157.5C118.242 159.133 116.992 160.533 115.458 161.7C113.925 162.833 111.958 163.4 109.558 163.4ZM111.458 161.5C112.225 161.5 112.958 161.25 113.658 160.75C114.392 160.217 115.058 159.567 115.658 158.8C116.258 158.033 116.775 157.233 117.208 156.4C117.675 155.567 118.058 154.833 118.358 154.2C117.225 153.233 116.658 152.017 116.658 150.55C116.658 149.583 116.925 148.833 117.458 148.3C117.992 147.767 118.725 147.533 119.658 147.6C119.625 146.833 119.425 146.2 119.058 145.7C118.692 145.2 118.092 144.95 117.258 144.95C116.492 144.95 115.758 145.183 115.058 145.65C114.392 146.117 113.758 146.717 113.158 147.45C112.592 148.15 112.075 148.883 111.608 149.65C111.175 150.383 110.808 151.05 110.508 151.65C110.075 152.517 109.675 153.567 109.308 154.8C108.942 156.033 108.758 157.183 108.758 158.25C108.758 159.183 108.942 159.967 109.308 160.6C109.708 161.2 110.425 161.5 111.458 161.5ZM130.369 163.3C129.402 163.3 128.669 162.917 128.169 162.15C127.936 161.783 127.769 161.35 127.669 160.85C127.569 160.35 127.519 159.833 127.519 159.3C127.519 158.767 127.552 158.233 127.619 157.7C127.686 157.133 127.769 156.583 127.869 156.05C128.036 155.183 128.219 154.4 128.419 153.7C128.652 152.967 128.886 152.267 129.119 151.6V151.55C128.852 152.05 128.519 152.6 128.119 153.2C127.719 153.767 127.436 154.183 127.269 154.45C127.036 154.817 126.852 155 126.719 155C126.586 155 126.519 154.85 126.519 154.55C126.519 153.883 126.719 153.15 127.119 152.35C127.386 151.817 127.752 151.133 128.219 150.3C128.686 149.433 129.169 148.5 129.669 147.5C130.169 146.5 130.602 145.533 130.969 144.6H127.619C127.452 144.6 127.419 144.467 127.519 144.2C127.619 143.933 127.769 143.683 127.969 143.45C128.169 143.183 128.319 143.05 128.419 143.05H132.219C132.586 142.183 133.002 141.25 133.469 140.25C133.969 139.25 134.519 138.317 135.119 137.45C135.752 136.55 136.436 135.817 137.169 135.25C137.902 134.683 138.686 134.4 139.519 134.4C139.886 134.4 140.336 134.4 140.869 134.4C141.436 134.4 141.786 134.383 141.919 134.35C141.219 134.817 140.402 135.75 139.469 137.15C138.536 138.517 137.519 140.483 136.419 143.05H141.469C141.569 143.05 141.536 143.183 141.369 143.45C141.202 143.683 140.986 143.933 140.719 144.2C140.486 144.467 140.252 144.6 140.019 144.6H135.719C135.286 145.7 134.802 146.9 134.269 148.2C133.769 149.5 133.302 150.783 132.869 152.05C132.469 153.283 132.169 154.417 131.969 155.45C131.836 156.083 131.769 156.667 131.769 157.2C131.769 158.467 132.169 159.1 132.969 159.1C133.502 159.1 134.136 158.833 134.869 158.3C135.602 157.767 136.336 157.033 137.069 156.1C137.736 155.233 138.369 154.3 138.969 153.3C139.602 152.3 140.136 151.383 140.569 150.55C140.702 150.317 140.819 150.2 140.919 150.2C141.119 150.2 141.219 150.467 141.219 151C141.219 151.267 141.169 151.583 141.069 151.95C141.002 152.283 140.869 152.617 140.669 152.95C140.202 153.75 139.652 154.633 139.019 155.6C138.386 156.533 137.736 157.467 137.069 158.4C136.602 159 135.986 159.683 135.219 160.45C134.486 161.217 133.686 161.883 132.819 162.45C131.986 163.017 131.169 163.3 130.369 163.3ZM150.42 162.3C148.887 163.1 147.27 163.5 145.57 163.5C144.137 163.5 142.804 163.15 141.57 162.45C140.337 161.75 139.504 160.633 139.07 159.1C138.87 158.4 138.77 157.667 138.77 156.9C138.77 155.633 138.987 154.333 139.42 153C139.887 151.633 140.487 150.383 141.22 149.25C142.354 147.483 143.787 146.017 145.52 144.85C147.254 143.683 149.17 143.1 151.27 143.1C152.837 143.1 154.054 143.5 154.92 144.3C155.787 145.1 156.22 146.033 156.22 147.1C156.22 148.367 155.787 149.483 154.92 150.45C154.087 151.383 152.987 152.1 151.62 152.6C150.954 152.833 150.237 153.017 149.47 153.15C148.737 153.25 148.037 153.3 147.37 153.3C146.004 153.3 144.954 153.117 144.22 152.75C143.587 154.383 143.27 155.883 143.27 157.25C143.27 158.483 143.554 159.5 144.12 160.3C144.687 161.067 145.587 161.45 146.82 161.45C147.854 161.45 148.87 161.167 149.87 160.6C150.904 160.033 151.854 159.333 152.72 158.5C153.62 157.667 154.37 156.867 154.97 156.1C155.437 155.533 155.837 155 156.17 154.5C156.504 154 156.854 153.433 157.22 152.8C157.587 152.133 158.02 151.317 158.52 150.35C158.654 150.117 158.77 150 158.87 150C159.07 150 159.17 150.267 159.17 150.8C159.17 151.1 159.12 151.433 159.02 151.8C158.954 152.133 158.82 152.483 158.62 152.85C158.154 153.683 157.587 154.6 156.92 155.6C156.287 156.567 155.637 157.5 154.97 158.4C154.37 159.2 153.687 159.933 152.92 160.6C152.154 161.267 151.32 161.833 150.42 162.3ZM145.87 151.65C146.037 151.75 146.22 151.817 146.42 151.85C146.62 151.883 146.82 151.9 147.02 151.9C147.687 151.9 148.354 151.75 149.02 151.45C149.687 151.117 150.254 150.783 150.72 150.45C151.487 149.917 152.137 149.283 152.67 148.55C153.204 147.817 153.504 146.983 153.57 146.05C153.604 145.65 153.504 145.317 153.27 145.05C153.07 144.75 152.704 144.6 152.17 144.6C151.904 144.6 151.57 144.65 151.17 144.75C150.637 144.883 150.104 145.133 149.57 145.5C149.037 145.867 148.52 146.3 148.02 146.8C147.854 146.967 147.554 147.3 147.12 147.8C146.72 148.267 146.337 148.8 145.97 149.4C145.604 149.967 145.42 150.467 145.42 150.9C145.42 151.267 145.57 151.517 145.87 151.65ZM162.01 164C160.877 164 159.81 163.85 158.81 163.55C157.81 163.25 156.993 162.783 156.36 162.15C155.727 161.517 155.41 160.717 155.41 159.75C155.41 159.017 155.627 158.3 156.06 157.6C156.527 156.9 157.177 156.55 158.01 156.55C158.377 156.55 158.71 156.633 159.01 156.8C159.31 156.967 159.51 157.183 159.61 157.45C159.577 157.483 159.493 157.6 159.36 157.8C159.227 157.967 159.143 158.083 159.11 158.15C158.81 158.75 158.66 159.3 158.66 159.8C158.66 160.5 158.91 161.067 159.41 161.5C159.943 161.933 160.627 162.15 161.46 162.15C162.56 162.117 163.51 161.733 164.31 161C165.143 160.233 165.56 159.333 165.56 158.3C165.56 157.7 165.427 157.133 165.16 156.6C164.727 155.7 164.143 154.933 163.41 154.3C162.71 153.633 162.027 152.967 161.36 152.3C160.727 151.633 160.26 150.833 159.96 149.9C159.827 149.467 159.76 148.933 159.76 148.3C159.76 147.667 159.843 147.05 160.01 146.45C160.177 145.817 160.427 145.283 160.76 144.85C161.227 144.217 161.927 143.633 162.86 143.1C164.027 142.467 165.393 142.15 166.96 142.15C167.993 142.15 168.91 142.283 169.71 142.55C170.31 142.75 170.827 143.083 171.26 143.55C171.727 143.983 171.96 144.567 171.96 145.3C171.96 146.133 171.693 146.933 171.16 147.7C170.66 148.433 169.927 148.883 168.96 149.05C168.36 149.117 167.827 149.017 167.36 148.75C166.893 148.45 166.727 147.9 166.86 147.1C167.76 146.9 168.41 146.533 168.81 146C169.01 145.7 169.11 145.4 169.11 145.1C169.11 144.533 168.877 144.15 168.41 143.95C167.977 143.717 167.56 143.6 167.16 143.6C166.66 143.6 166.177 143.667 165.71 143.8C165.277 143.9 164.877 144.083 164.51 144.35C163.777 144.983 163.41 145.717 163.41 146.55C163.41 146.683 163.427 146.833 163.46 147C163.527 147.167 163.577 147.333 163.61 147.5C163.777 147.933 164.027 148.333 164.36 148.7C164.693 149.067 165.027 149.383 165.36 149.65C166.193 150.25 167.043 150.9 167.91 151.6C168.81 152.3 169.477 153.15 169.91 154.15C170.243 154.85 170.41 155.567 170.41 156.3C170.41 157.3 170.16 158.217 169.66 159.05C169.16 159.85 168.593 160.483 167.96 160.95C169.06 160.483 170.127 159.667 171.16 158.5C172.227 157.3 173.143 156.117 173.91 154.95C174.41 154.183 174.86 153.467 175.26 152.8C175.693 152.1 176.127 151.333 176.56 150.5C176.693 150.267 176.81 150.15 176.91 150.15C177.11 150.15 177.21 150.433 177.21 151C177.21 151.233 177.16 151.517 177.06 151.85C176.993 152.183 176.877 152.517 176.71 152.85C176.11 153.85 175.543 154.783 175.01 155.65C174.477 156.483 173.827 157.4 173.06 158.4C171.527 160.433 169.893 161.883 168.16 162.75C166.427 163.583 164.377 164 162.01 164Z" fill="#8FC549"/>
</svg>
